<svg width="62" height="62" viewBox="0 0 62 62" fill="none" xmlns="http://www.w3.org/2000/svg">
<path fill-rule="evenodd" clip-rule="evenodd" d="M38.3861 30.4584L40.1728 31.6534L38.4063 32.878L13.0786 50.4369L11.0901 51.8155L11.0699 49.3959L10.7777 14.3993L10.7575 11.9797L12.7688 13.3249L38.3861 30.4584ZM12.789 15.7445L36.6196 31.683L13.0584 48.0173L12.789 15.7445ZM43.0308 14.6289L49.0306 14.5788L49.3144 48.5776L43.3147 48.6277L43.0308 14.6289ZM41.0141 12.6456L43.0141 12.6289L49.0139 12.5788L51.0138 12.5621L51.0305 14.5621L51.3144 48.5609L51.3311 50.5608L49.3311 50.5775L43.3314 50.6276L41.3314 50.6443L41.3147 48.6444L41.0308 14.6456L41.0141 12.6456Z" fill="url(#paint0_linear)"/>
<defs>
<linearGradient id="paint0_linear" x1="14.2527" y1="-0.666619" x2="52.2458" y2="55.7384" gradientUnits="userSpaceOnUse">
<stop stop-color="#00EC50"/>
<stop offset="1" stop-color="#1E85FF"/>
</linearGradient>
</defs>
</svg>
